<mxfile host="app.diagrams.net" agent="Mozilla/5.0 (Macintosh; Intel Mac OS X 10_15_7) AppleWebKit/605.1.15 (KHTML, like Gecko) Version/16.6 Safari/605.1.15" version="28.2.0">
  <diagram name="Page-1" id="cK8ZJ49vBYa4HCSJJSgc">
    <mxGraphModel dx="946" dy="652" grid="1" gridSize="10" guides="1" tooltips="1" connect="1" arrows="1" fold="1" page="1" pageScale="1" pageWidth="827" pageHeight="1169" math="0" shadow="0">
      <root>
        <mxCell id="0" />
        <mxCell id="1" parent="0" />
        <mxCell id="jUp-VollW1fkYL8cZEZb-1" value="plan" style="ellipse;whiteSpace=wrap;html=1;" vertex="1" parent="1">
          <mxGeometry x="350" y="300" width="120" height="80" as="geometry" />
        </mxCell>
        <mxCell id="jUp-VollW1fkYL8cZEZb-2" value="develop" style="triangle;whiteSpace=wrap;html=1;" vertex="1" parent="1">
          <mxGeometry x="360" y="100" width="60" height="80" as="geometry" />
        </mxCell>
        <mxCell id="jUp-VollW1fkYL8cZEZb-4" value="" style="endArrow=classic;startArrow=classic;html=1;rounded=0;curved=1;exitX=0.45;exitY=0.025;exitDx=0;exitDy=0;exitPerimeter=0;" edge="1" parent="1" source="jUp-VollW1fkYL8cZEZb-1" target="jUp-VollW1fkYL8cZEZb-2">
          <mxGeometry width="50" height="50" relative="1" as="geometry">
            <mxPoint x="390" y="290" as="sourcePoint" />
            <mxPoint x="390" y="180" as="targetPoint" />
          </mxGeometry>
        </mxCell>
        <mxCell id="jUp-VollW1fkYL8cZEZb-8" value="build" style="ellipse;shape=cloud;whiteSpace=wrap;html=1;" vertex="1" parent="1">
          <mxGeometry x="360" y="490" width="120" height="80" as="geometry" />
        </mxCell>
        <mxCell id="jUp-VollW1fkYL8cZEZb-9" value="test" style="shape=hexagon;perimeter=hexagonPerimeter2;whiteSpace=wrap;html=1;fixedSize=1;" vertex="1" parent="1">
          <mxGeometry x="380" y="640" width="120" height="80" as="geometry" />
        </mxCell>
        <mxCell id="jUp-VollW1fkYL8cZEZb-10" value="" style="endArrow=classic;startArrow=classic;html=1;rounded=0;curved=1;entryX=0.5;entryY=1;entryDx=0;entryDy=0;exitX=0.467;exitY=0.063;exitDx=0;exitDy=0;exitPerimeter=0;" edge="1" parent="1" source="jUp-VollW1fkYL8cZEZb-8" target="jUp-VollW1fkYL8cZEZb-1">
          <mxGeometry width="50" height="50" relative="1" as="geometry">
            <mxPoint x="370" y="490" as="sourcePoint" />
            <mxPoint x="420" y="440" as="targetPoint" />
          </mxGeometry>
        </mxCell>
        <mxCell id="jUp-VollW1fkYL8cZEZb-12" value="" style="endArrow=classic;startArrow=classic;html=1;rounded=0;curved=1;entryX=0.55;entryY=0.95;entryDx=0;entryDy=0;entryPerimeter=0;exitX=0.3;exitY=0.013;exitDx=0;exitDy=0;exitPerimeter=0;" edge="1" parent="1" source="jUp-VollW1fkYL8cZEZb-9" target="jUp-VollW1fkYL8cZEZb-8">
          <mxGeometry width="50" height="50" relative="1" as="geometry">
            <mxPoint x="370" y="810" as="sourcePoint" />
            <mxPoint x="420" y="760" as="targetPoint" />
          </mxGeometry>
        </mxCell>
        <mxCell id="jUp-VollW1fkYL8cZEZb-13" value="relese" style="shape=tape;whiteSpace=wrap;html=1;" vertex="1" parent="1">
          <mxGeometry x="370" y="820" width="120" height="100" as="geometry" />
        </mxCell>
        <mxCell id="jUp-VollW1fkYL8cZEZb-14" value="" style="endArrow=classic;startArrow=classic;html=1;rounded=0;curved=1;entryX=0.442;entryY=1.038;entryDx=0;entryDy=0;entryPerimeter=0;exitX=0.5;exitY=0.18;exitDx=0;exitDy=0;exitPerimeter=0;" edge="1" parent="1" source="jUp-VollW1fkYL8cZEZb-13" target="jUp-VollW1fkYL8cZEZb-9">
          <mxGeometry width="50" height="50" relative="1" as="geometry">
            <mxPoint x="360" y="850" as="sourcePoint" />
            <mxPoint x="410" y="800" as="targetPoint" />
          </mxGeometry>
        </mxCell>
      </root>
    </mxGraphModel>
  </diagram>
</mxfile>
